{"accessors":[{"bufferView":2,"componentType":5126,"count":173,"max":[240.1640167236328,259.7309875488281,435.3659973144531],"min":[-239.416015625,-213.5560302734375,98.09557342529297],"type":"VEC3"},{"bufferView":2,"byteOffset":2076,"componentType":5126,"count":173,"max":[0.9999865293502808,0.9999865293502808,1],"min":[-0.9999865293502808,-0.9999865293502808,-1],"type":"VEC3"},{"bufferView":1,"componentType":5126,"count":173,"max":[12.529099464416504,9.723589897155762],"min":[-24.662099838256836,-3.007930040359497],"type":"VEC2"},{"bufferView":0,"componentType":5125,"count":303,"type":"SCALAR"},{"bufferView":2,"byteOffset":4152,"componentType":5126,"count":58,"max":[280.7550048828125,303.4750061035156,98.09565734863281],"min":[-280.3760070800781,-257.6549987792969,52.11597442626953],"type":"VEC3"},{"bufferView":2,"byteOffset":4848,"componentType":5126,"count":58,"max":[0.9996083378791809,0.9997079968452454,0.31459739804267883],"min":[-0.9997079968452454,-0.9994893670082092,-0.23190683126449585],"type":"VEC3"},{"bufferView":1,"byteOffset":1384,"componentType":5126,"count":58,"max":[0.7885410189628601,1.0004700422286987],"min":[-25.80219841003418,-0.0006580000044777989],"type":"VEC2"},{"bufferView":0,"byteOffset":1212,"componentType":5125,"count":180,"type":"SCALAR"},{"bufferView":2,"byteOffset":5544,"componentType":5126,"count":4,"max":[40.97979736328125,-142.42405700683594,301.1379699707031],"min":[-40.97979736328125,-142.42405700683594,246.6809844970703],"type":"VEC3"},{"bufferView":2,"byteOffset":5592,"componentType":5126,"count":4,"max":[0,-1,0],"min":[0,-1,0],"type":"VEC3"},{"bufferView":1,"byteOffset":1848,"componentType":5126,"count":4,"max":[0,0],"min":[0,0],"type":"VEC2"},{"bufferView":0,"byteOffset":1932,"componentType":5125,"count":6,"type":"SCALAR"},{"bufferView":2,"byteOffset":5640,"componentType":5126,"count":136,"max":[266.28302001953125,300.80194091796875,471.72308349609375],"min":[-265.48602294921875,-196.5220489501953,234.4810028076172],"type":"VEC3"},{"bufferView":2,"byteOffset":7272,"componentType":5126,"count":136,"max":[0.722480297088623,0.9999865293502808,0.999742329120636],"min":[-0.722480297088623,-0.46690282225608826,-1],"type":"VEC3"},{"bufferView":1,"byteOffset":1880,"componentType":5126,"count":136,"max":[8.8839693069458,2.5850000381469727],"min":[-10.532400131225586,-1.8174999952316284],"type":"VEC2"},{"bufferView":0,"byteOffset":1956,"componentType":5125,"count":234,"type":"SCALAR"},{"bufferView":2,"byteOffset":8904,"componentType":5126,"count":423,"max":[284.96600341796875,235.26498413085938,447.7760314941406],"min":[-284.73101806640625,-220.94403076171875,100.47299194335938],"type":"VEC3"},{"bufferView":2,"byteOffset":13980,"componentType":5126,"count":423,"max":[0.9999865293502808,0.8638786673545837,1],"min":[-0.9999964237213135,-0.999987006187439,-1],"type":"VEC3"},{"bufferView":1,"byteOffset":2968,"componentType":5126,"count":423,"max":[13.470799446105957,5.31564998626709],"min":[-1.9942100048065186,-11.560699462890625],"type":"VEC2"},{"bufferView":0,"byteOffset":2892,"componentType":5125,"count":693,"type":"SCALAR"},{"bufferView":2,"byteOffset":19056,"componentType":5126,"count":28,"max":[277.52801513671875,300.24798583984375,98.09565734863281],"min":[-277.1510009765625,-254.4300079345703,98.09557342529297],"type":"VEC3"},{"bufferView":2,"byteOffset":19392,"componentType":5126,"count":28,"max":[0,0,1],"min":[0,0,1],"type":"VEC3"},{"bufferView":1,"byteOffset":6352,"componentType":5126,"count":28,"max":[-12.389199256896973,10.235499382019043],"min":[-19.966798782348633,2.6578800678253174],"type":"VEC2"},{"bufferView":0,"byteOffset":5664,"componentType":5125,"count":93,"type":"SCALAR"},{"bufferView":2,"byteOffset":19728,"componentType":5126,"count":383,"max":[279.0080261230469,300.80194091796875,471.72308349609375],"min":[-278.77301025390625,-196.5220489501953,107.94800567626953],"type":"VEC3"},{"bufferView":2,"byteOffset":24324,"componentType":5126,"count":383,"max":[0.9999898672103882,0.9999865293502808,1],"min":[-0.9999910593032837,-0.9999865293502808,-0.7215025424957275],"type":"VEC3"},{"bufferView":1,"byteOffset":6576,"componentType":5126,"count":383,"max":[7.181290149688721,0.9733210206031799],"min":[-19.48219871520996,0.04311000183224678],"type":"VEC2"},{"bufferView":0,"byteOffset":6036,"componentType":5125,"count":615,"type":"SCALAR"},{"bufferView":2,"byteOffset":28920,"componentType":5126,"count":1265,"max":[280.135009765625,92.65152740478516,523.884033203125],"min":[-281.7960205078125,-245.7220458984375,96.77747344970703],"type":"VEC3"},{"bufferView":2,"byteOffset":44100,"componentType":5126,"count":1265,"max":[0.9999865293502808,0.9999865293502808,1],"min":[-0.9999865293502808,-0.999987006187439,-1],"type":"VEC3"},{"bufferView":1,"byteOffset":9640,"componentType":5126,"count":1265,"max":[1.518090009689331,3.7743899822235107],"min":[-1.3677200078964233,-5.01209020614624],"type":"VEC2"},{"bufferView":0,"byteOffset":8496,"componentType":5125,"count":1884,"type":"SCALAR"}],"asset":{"extras":{"author":"Tigerar1 (https://sketchfab.com/allanromanreyes)","license":"SKETCHFAB Standard (https://sketchfab.com/licenses)","source":"https://sketchfab.com/3d-models/ghost-house-b161d2370e0543f2a70f70a9daa547cb","title":"Ghost House"},"generator":"Sketchfab-15.91.0","version":"2.0"},"bufferViews":[{"buffer":0,"byteLength":16032,"name":"floatBufferViews","target":34963},{"buffer":0,"byteLength":19760,"byteOffset":16032,"byteStride":8,"name":"floatBufferViews","target":34962},{"buffer":0,"byteLength":59280,"byteOffset":35792,"byteStride":12,"name":"floatBufferViews","target":34962}],"buffers":[{"byteLength":95072,"uri":"data:application/octet-stream;base64,"}],"images":[{"uri":"data:application/octet-stream;base64,"},{"uri":"data:application/octet-stream;base64,"},{"uri":"data:application/octet-stream;base64,"},{"uri":"data:application/octet-stream;base64,"},{"uri":"data:application/octet-stream;base64,"},{"uri":"data:application/octet-stream;base64,"},{"uri":"data:application/octet-stream;base64,"}],"materials":[{"doubleSided":true,"name":"MiniatureTeresaHouseMat00","pbrMetallicRoughness":{"baseColorTexture":{"index":0},"metallicFactor":0,"roughnessFactor":0.8063508326896291}},{"doubleSided":true,"name":"MiniatureTeresaHouseMat01","pbrMetallicRoughness":{"baseColorTexture":{"index":1},"metallicFactor":0,"roughnessFactor":0.8063508326896291}},{"doubleSided":true,"name":"MiniatureTeresaHouseMat02","pbrMetallicRoughness":{"baseColorTexture":{"index":2},"metallicFactor":0,"roughnessFactor":0.8063508326896291}},{"doubleSided":true,"name":"MiniatureTeresaHouseMat03","pbrMetallicRoughness":{"baseColorTexture":{"index":3},"metallicFactor":0,"roughnessFactor":0.8063508326896291}},{"doubleSided":true,"name":"MiniatureTeresaHouseMat04","pbrMetallicRoughness":{"baseColorTexture":{"index":4},"metallicFactor":0,"roughnessFactor":0.8063508326896291}},{"doubleSided":true,"name":"MiniatureTeresaHouseMat05","pbrMetallicRoughness":{"baseColorTexture":{"index":5},"metallicFactor":0,"roughnessFactor":0.8063508326896291}},{"doubleSided":true,"name":"MiniatureTeresaHouseMat06","pbrMetallicRoughness":{"baseColorTexture":{"index":6},"metallicFactor":0,"roughnessFactor":0.8063508326896291}},{"doubleSided":true,"name":"MiniatureTeresaHouseMat08","pbrMetallicRoughness":{"baseColorFactor":[0.8,0.8,0.8,1],"metallicFactor":0,"roughnessFactor":0.8063508326896291}}],"meshes":[{"name":"Object_0","primitives":[{"attributes":{"NORMAL":1,"POSITION":0,"TEXCOORD_0":2},"indices":3,"material":1,"mode":4}]},{"name":"Object_1","primitives":[{"attributes":{"NORMAL":5,"POSITION":4,"TEXCOORD_0":6},"indices":7,"material":4,"mode":4}]},{"name":"Object_2","primitives":[{"attributes":{"NORMAL":9,"POSITION":8,"TEXCOORD_0":10},"indices":11,"material":7,"mode":4}]},{"name":"Object_3","primitives":[{"attributes":{"NORMAL":13,"POSITION":12,"TEXCOORD_0":14},"indices":15,"material":0,"mode":4}]},{"name":"Object_4","primitives":[{"attributes":{"NORMAL":17,"POSITION":16,"TEXCOORD_0":18},"indices":19,"material":2,"mode":4}]},{"name":"Object_5","primitives":[{"attributes":{"NORMAL":21,"POSITION":20,"TEXCOORD_0":22},"indices":23,"material":3,"mode":4}]},{"name":"Object_6","primitives":[{"attributes":{"NORMAL":25,"POSITION":24,"TEXCOORD_0":26},"indices":27,"material":5,"mode":4}]},{"name":"Object_7","primitives":[{"attributes":{"NORMAL":29,"POSITION":28,"TEXCOORD_0":30},"indices":31,"material":6,"mode":4}]}],"nodes":[{"children":[1],"matrix":[1,0,0,0,0,2.220446049250313e-16,-1,0,0,1,2.220446049250313e-16,0,0,0,0,1],"name":"Sketchfab_model"},{"children":[2,3,4,5,6,7,8,9],"name":"GhostHouse.obj.cleaner.materialmerger.gles"},{"mesh":0,"name":"Object_2"},{"mesh":1,"name":"Object_3"},{"mesh":2,"name":"Object_4"},{"mesh":3,"name":"Object_5"},{"mesh":4,"name":"Object_6"},{"mesh":5,"name":"Object_7"},{"mesh":6,"name":"Object_8"},{"mesh":7,"name":"Object_9"}],"samplers":[{"magFilter":9729,"minFilter":9987,"wrapS":10497,"wrapT":10497}],"scene":0,"scenes":[{"name":"Sketchfab_Scene","nodes":[0]}],"textures":[{"sampler":0,"source":0},{"sampler":0,"source":1},{"sampler":0,"source":2},{"sampler":0,"source":3},{"sampler":0,"source":4},{"sampler":0,"source":5},{"sampler":0,"source":6}]}